/* XPM */
static const char *bacnet_icon[] = {
/* columns rows colors chars-per-pixel */
"81 70 64 1 ",
"  c black",
". c #060906090609",
"X c gray3",
"o c #0D150D150D15",
"O c #111B111B111B",
"+ c #173C173C173C",
"@ c #1B0F1B0F1B0F",
"# c #1EFB1EFB1EFB",
"$ c #203320332033",
"% c #242524252425",
"& c #294429442944",
"* c #2D412D412D41",
"= c gray20",
"- c #351035103510",
"; c #3A333A333A33",
": c #3D623D623D62",
"> c #414141414141",
", c #477347734773",
"< c #4A4C4A4C4A4C",
"1 c #4E3E4E3E4E3E",
"2 c #503E503E503E",
"3 c #54C054C054C0",
"4 c #5A665A665A66",
"5 c #5F825F825F82",
"6 c #606060606060",
"7 c #653F653F653F",
"8 c #6A6A6A6A6A6A",
"9 c #6FC46FC46FC4",
"0 c #72B272B272B2",
"q c #767376737673",
"w c #799279927992",
"e c #7DA67DA67DA6",
"r c #805B805B805B",
"t c #857585758575",
"y c #888888888888",
"u c #8E968E968E96",
"i c #927E927E927E",
"p c #946794679467",
"a c #9B659B659B65",
"s c #9D9E9D9E9D9E",
"d c #A0D9A0D9A0D9",
"f c #A569A569A569",
"g c #ABE1ABE1ABE1",
"h c #AEDFAEDFAEDF",
"j c #B2C9B2C9B2C9",
"k c #B799B799B799",
"l c #B97EB97EB97E",
"z c gray",
"x c #C3ECC3ECC3EC",
"c c #C5A4C5A4C5A4",
"v c #CBCBCBCBCBCB",
"b c #CFB6CFB6CFB6",
"n c #D1C2D1C2D1C2",
"m c gray83",
"M c #DBBFDBBFDBBF",
"N c gainsboro",
"B c #E0F7E0F7E0F7",
"V c #E841E841E841",
"C c #EA2BEA2BEA2B",
"Z c #EF17EF17EF17",
"A c #F200F200F200",
"S c #F4EEF4EEF4EE",
"D c #FC4BFC4BFC4B",
"F c white",
/* pixels */
"FFFFFFFFFFFFFFFFFFFFx9999999999999999999999999999999999999999xFFFFFFFFFFFFFFFFFFF",
"FFFFFFFFFFFFFFFFFFFD                                          DFFFFFFFFFFFFFFFFFF",
"FFFFFFFFFFFFFFFFFFFu vFFFFFFFFFFFFFFF*   rFFFFFFFFFFFFFFFFFFv uFFFFFFFFFFFFFFFFFF",
"FFFFFFFFFFFFFFFFFFV 2FFFFFFFFFFFFFFFm    *FFFFFFFFFFFFFFFFFFF1 VFFFFFFFFFFFFFFFFF",
"FFFFFFFFFFFFFFFFFF4 VFFFFFFFFFFFFFFFe  o  mFFFFFFFFFFFFFFFFFFB 4FFFFFFFFFFFFFFFFF",
"FFFFFFFFFFFFFFFFFb tFFFFFFFFFFFFFFFF% Xt  rFFFFFFFFFFFFFFFFFFFt bFFFFFFFFFFFFFFFF",
"FFFFFFFFFFFFFFFFF# SFFFFFFFFFFFFFFFb  2B  &FFFFFFFFFFFFFFFFFFFS #FFFFFFFFFFFFFFFF",
"FFFFFFFFFFFFFFFFg jFFFFFFFFFFFFFFFFq  fF-  nFFFFFFFFFFFFFFFFFFFj gFFFFFFFFFFFFFFF",
"FFFFFFFFFFFFFFFS %FFFFFFFFFFFFFFFFF# .AFt  eFFFFFFFFFFFFFFFFFFFF% SFFFFFFFFFFFFFF",
"FFFFFFFFFFFFFFFe nFFFFFFFFFFFFFFFFx  <FFM  %FFFFFFFFFFFFFFFFFFFFn eFFFFFFFFFFFFFF",
"FFFFFFFFFFFFFFB 6FFFFFFFFFFFFFFFFF8  ,tttX  nFFFFFFFFFFFFFFFFFFFF6 BFFFFFFFFFFFFF",
"FFFFFFFFFFFFFF, CFFFFFFFFFFFFFFFFF+         wFFFFFFFFFFFFFFFFFFFFC <FFFFFFFFFFFFF",
"FFFFFFFFFFFFFx pFFFFFFFFFFFFFFFFFl          $FFFFFFFFFFFFFFFFFFFFFi cFFFFFFFFFFFF",
"FFFFFFFFFFFFDX DFFFFFFFFFFFFFFFFF6  aFFFFF%  bFFFFFFFFFFFFFFFAbxNFD XDFFFFFFFFFFF",
"FFFFFFFFFFFFs kAFFFFFFFFFFFFFFFFDo  CFFFFFw  qFFFFFFFFFFFFFz<.   &hz sFFFFFFFFFFF",
"FFFFFFFFFFFZ o  >BFFFFFFFFFFFFFFj  >FFFFFFv  $FFFFFFFFFFFV1        e; ZFFFFFFFFFF",
"FFFFFFFFFFF4     $ZFFFFFFFFFFFFFFFFFFFFFFFFFFFFFFFFFFFFFm@    *,%   i 9FFFFFFFFFF",
"FFFFFFFFFFn   *+  aFZZFFFFFFFFzzzzzzzzzzzzzzzzzzzzvFFFFZ#   6mFFFh. +9 MFFFFFFFFF",
"FFFFFFFFFF@  eFS: >-  -mFFFFFz                     ZFFF9  OkFFFFFFi  a -FFFFFFFFF",
"FFFFFFFFFf  *FFFy      OnFFFF. oX               o. 2FFDo  lFFFFFFFS. 7d lFFFFFFFF",
"FFFFFFFFD   zFFF:  2r%  1FFFu  df               m0  nFn  1FFFFFFFFDX 2Fo DFFFFFFF",
"FFFFFFFF9  ,FFFj  4FFA#  FFZ   @F=      %      <Fo  #Fn  eFFFFFFFFs  8Fc uFFFFFFF",
"FFFFFFFV    4BD% OCFFF2 .FF3    eM     +F     .F4    gS. 2FFFFFFFF#  lFF1 CFFFFFF",
"FFFFFFF4 X   X,  iFFFAo <Fm     XF1    +F     9Z      D< .mFFFFFFFp ,FFFB 5FFFFFF",
"FFFFFFb rB4     @DFFFq  kF$      3FX   +F    +F;      qv. #jCvAFFFF0AFFFFr bFFFFF",
"FFFFFF$ SFFx=    ;vFM. :Fg        C0   +F    al        Vi     wFFFFFFFFFFS $FFFFF",
"FFFFFh hFFFFFs+    6,  bD         -F+  +F   &F$        >Fe.   .NFFFFFFFFFFh hFFFF",
"FFFFS %FFFFFFFAq.     7Fq   OX     ks @5F,  by     OX   vFM01<iCFFFFFFFFFFF$ SFFF",
"FFFFr nFFFFFFFFFN2   oCC    sF<    #FAFFFFFBFo    5F9   OFFFFFFFFFFFFFFFFFFn rFFF",
"FFFB 5FFFFFFFFFFFFz* uF>     4Fx$  lFFFFFFFFFw  *BF,     aFFFFFFFFFFFFFFFFFF5 BFF",
"FFF< CFFFFFFFFFFFFFFdDc       OpFwlFFFFFFFFFFF0iFeX       SFFFFFFFFFFFFFFFFFC <FF",
"FFc iFFFFFFFFFFFFFFFFFO         =AFFFFFFFFFFFFFv$         7FFFFFFFFFFFFFFFFFFi cF",
"FFX DFFFFFFFFFFFFFFFFa           ZFFFFFMfxFFFFFf           BFFFFFFFFFFFFFFFFFD XF",
"Fs lFFFFFFFFFFFFFFFFA           OFFFFFg   $DFFFA           =FFFFFFFFFFFFFFFFFFl s",
"Z ;FFFFFFFFFFFFFFFFF6 O%%%%%%%%%6FFFFD  xq sFFFF%%%%%%%%%%X lFFFFFFFFFFFFFFFFFF- ",
"p MFFFFFFFFFFFFFFFFF  iFFFFFFFFFFFFFFC 7FV 7FFFFFFFFFFFFFF8 1FFFFFFFFFFFFFFFFFFM ",
"Z ;FFFFFFFFFFFFFFFFFj           :FFFFF  u; hFFFF            ZFFFFFFFFFFFFFFFFFF- ",
"Fs lFFFFFFFFFFFFFFFFF%           FFFFFc   6FFFFV           rFFFFFFFFFFFFFFFFFFl s",
"FFX DFFFFFFFFFFFFFFFFM           MFFFFFSnVFFFFFu           DFFFFFFFFFFFFFFFFFD XF",
"FFc iFFFFFFFFFFFFFFFFF4        .9FFFFFFFFFFFFFFF4         kFFFFFFFFFFFFFFFFFFi cF",
"FFF< CFFFFFFFFFFFFFFFFA       ;FS-eFFFFFFFFFFF*,FN&      &FFFFFFFFFFFFFFFFFFC <FF",
"FFFB 5FFFFFFFFFFFFFFFFFi    +gF8.  0FFFFFFFFD*  XrFuo    MFFFFFFFFFFFFFFFFFF5 BFF",
"FFFFr nFFFFFFFFFFFFFFFFFX   pj@    ;FlSFFFCsF$    %b9   4FFFFFFFFFFFFFFFFFFn rFFF",
"FFFFS %FFFFFFFFFFFFFFFFFx          A9  +F   pz          AFFFFFFFFFFFFFFFFFF$ SFFF",
"FFFFFh hFFFFFFFFFFFFFFFFF-        4F.  +F   OF:        iFFFFFFFFFFFFFFFFFFh hFFFF",
"FFFFFF$ SFFFFFFFFFFFFFFFFB       oF<   +F    8S       XFFFFFFFFFFFFFFFFFFS $FFFFF",
"FFFFFFb rFFFFFFFFFFFFFFFFF9      rm    +F    .F5      zFFFFFFFFFFFFFFFFFFr bFFFFF",
"FFFFFFF5 BFFFFFFFFFFFFFFFFS     #F*    +F     <Fo    -FFFFFFFFFFFFFFFFFFB 5FFFFFF",
"FFFFFFFC 1FFFFFFFFFFFFFFFFFd    jd     oS      nt    BFFFFFFFFFFFFFFFFFF1 CFFFFFF",
"FFFFFFFFu cFFFFFFFFFFFFFFFFF+  -F+             &F#  8FFFFFFFFFFFFFFFFFFc uFFFFFFF",
"FFFFFFFFD oFFFFFFFFFFFFFFFFFb  pq               s8  SFFFFFFFFFFFFFFFFFFo DFFFFFFF",
"FFFFFFFFFl dFFFFFFFFFFFFFFFFF<                     9&&sFFFFFFFFFFFFFFFd lFFFFFFFF",
"FFFFFFFFFF- AFFFFFFFFFFFFFFFFC                    Of  uFFFFFFFFFFFFFFA -FFFFFFFFF",
"FFFFFFFFFFM 0FFFFFFFFFFFFFFFFFFFFFFFFZ9-O*eZFFFFFFFg  uFFFFFFFFFFFFFF0 MFFFFFFFFF",
"FFFFFFFFFFF9 MFFFFFFFFF,XXAe-+:kFFFFn@     $NFFFFF<.  .XFFFFFFFFFFFFM 9FFFFFFFFFF",
"FFFFFFFFFFFZ ;FFFFFFFFF>  2     zFFF; otct  :FFFFF3o  o@FFFFFFFFFFFF; ZFFFFFFFFFF",
"FFFFFFFFFFFFs zFFFFFFFF>  X8w$  1FFx  yFFF>  bFFFFFg  uFFFFFFFFFFFFz sFFFFFFFFFFF",
"FFFFFFFFFFFFD. DFFFFFFF>  gFFm  %FFp  #***+  aFFFFFg  uFFFFFFFFFFFD XFFFFFFFFFFFF",
"FFFFFFFFFFFFFx pFFFFFFF>  ZFFFO @FFw         yFFFFFg  uFFFFFFFFFFFi xFFFFFFFFFFFF",
"FFFFFFFFFFFFFF, CFFFFFF>  SFFF@ @FFp  kFFFFFFFFFFFFg  uFFFFFFFFFFC <FFFFFFFFFFFFF",
"FFFFFFFFFFFFFFB 6FFFFFF>  SFFF@ @FFx  tFFFkttBFFFFFg  uFFFFFFFFFF6 BFFFFFFFFFFFFF",
"FFFFFFFFFFFFFFFe nFFFFF>  SFFF@ @FFF= Xani. $FFFFFFg  yFFFFFFFFFn eFFFFFFFFFFFFFF",
"FFFFFFFFFFFFFFFA %FFFFF>  SFFF@ @FFFcO     +nFFFFFFh  1MFFFFFFFF% SFFFFFFFFFFFFFF",
"FFFFFFFFFFFFFFFFg jFFFF>  SFFF@ @FFFFB5&X&0VFFFFFFFM    FFFFFFFj gFFFFFFFFFFFFFFF",
"FFFFFFFFFFFFFFFFF# SFFF>  SFFF@ @FFFFFFFFFFFFFFFFFFFp#X%FFFFFFS #FFFFFFFFFFFFFFFF",
"FFFFFFFFFFFFFFFFFb tFFFFFFFFFFFFFFFFFFFFFFFFFFFFFFFFFFFFFFFFFFt bFFFFFFFFFFFFFFFF",
"FFFFFFFFFFFFFFFFFF4 BFFFFFFFFFFFFFFFFFFFFFFFFFFFFFFFFFFFFFFFFB 4FFFFFFFFFFFFFFFFF",
"FFFFFFFFFFFFFFFFFFV 2FFFFFFFFFFFFFFFFFFFFFFFFFFFFFFFFFFFFFFFF2 VFFFFFFFFFFFFFFFFF",
"FFFFFFFFFFFFFFFFFFFu vFFFFFFFFFFFFFFFFFFFFFFFFFFFFFFFFFFFFFFv uFFFFFFFFFFFFFFFFFF",
"FFFFFFFFFFFFFFFFFFFD                                          DFFFFFFFFFFFFFFFFFF"
};
